<?xml version="1.0" encoding="UTF-8"?>
<!DOCTYPE svg PUBLIC "-//W3C//DTD SVG 1.1//EN" "http://www.w3.org/Graphics/SVG/1.1/DTD/svg11.dtd">
<svg xmlns="http://www.w3.org/2000/svg" version="1.1" width="1384px" height="575px" style="shape-rendering:geometricPrecision; text-rendering:geometricPrecision; image-rendering:optimizeQuality; fill-rule:evenodd; clip-rule:evenodd" xmlns:xlink="http://www.w3.org/1999/xlink">
<g><path style="opacity:1" fill="#fefefe" d="M -0.5,-0.5 C 460.833,-0.5 922.167,-0.5 1383.5,-0.5C 1383.5,191.167 1383.5,382.833 1383.5,574.5C 922.167,574.5 460.833,574.5 -0.5,574.5C -0.5,382.833 -0.5,191.167 -0.5,-0.5 Z"/></g>
<g><path style="opacity:1" fill="#2b3d93" d="M 188.5,66.5 C 194.833,66.5 201.167,66.5 207.5,66.5C 207.5,94.8333 207.5,123.167 207.5,151.5C 193.167,165.5 178.833,179.5 164.5,193.5C 164.173,152.094 164.506,110.761 165.5,69.5C 173.077,67.9278 180.744,66.9278 188.5,66.5 Z"/></g>
<g><path style="opacity:1" fill="#707bb5" d="M 188.5,66.5 C 194.979,65.5093 201.646,65.176 208.5,65.5C 208.831,94.3382 208.498,123.005 207.5,151.5C 207.5,123.167 207.5,94.8333 207.5,66.5C 201.167,66.5 194.833,66.5 188.5,66.5 Z"/></g>
<g><path style="opacity:1" fill="#f36b73" d="M 250.5,66.5 C 244.5,66.5 238.5,66.5 232.5,66.5C 232.5,118.5 232.5,170.5 232.5,222.5C 238.026,222.179 243.36,222.512 248.5,223.5C 242.833,223.5 237.167,223.5 231.5,223.5C 231.5,170.833 231.5,118.167 231.5,65.5C 238.022,65.1765 244.355,65.5098 250.5,66.5 Z"/></g>
<g><path style="opacity:1" fill="#ee212d" d="M 250.5,66.5 C 286.41,71.3036 320.077,82.8036 351.5,101C 366.355,107.285 381.688,111.952 397.5,115C 407.161,115.5 416.828,115.666 426.5,115.5C 426.83,161.405 426.497,207.239 425.5,253C 407.319,254.165 389.319,252.832 371.5,249C 347.505,242.668 323.505,236.334 299.5,230C 282.673,226.438 265.673,224.272 248.5,223.5C 243.36,222.512 238.026,222.179 232.5,222.5C 232.5,170.5 232.5,118.5 232.5,66.5C 238.5,66.5 244.5,66.5 250.5,66.5 Z"/></g>
<g><path style="opacity:1" fill="#262324" d="M 601.5,65.5 C 603.948,65.0847 605.281,66.0847 605.5,68.5C 601.119,87.1193 597.286,105.786 594,124.5C 601.808,115.523 610.974,108.356 621.5,103C 624.76,102.216 627.927,102.383 631,103.5C 632.545,108.047 632.879,112.713 632,117.5C 629.113,129.322 626.28,141.155 623.5,153C 623.833,153.833 624.167,154.667 624.5,155.5C 627.483,153.68 630.316,151.68 633,149.5C 634.732,149.734 635.566,150.734 635.5,152.5C 631.942,157.8 627.275,161.966 621.5,165C 615.082,168.376 611.749,166.543 611.5,159.5C 615.461,143.621 618.794,127.621 621.5,111.5C 616.997,112.153 612.997,113.987 609.5,117C 601.491,123.667 594.991,131.5 590,140.5C 588.305,148.476 586.805,156.476 585.5,164.5C 581.751,164.751 578.085,165.417 574.5,166.5C 580.281,137.155 586.281,107.822 592.5,78.5C 592.392,77.5581 592.059,76.7247 591.5,76C 588.854,75.5026 586.187,75.3359 583.5,75.5C 583.5,73.8333 583.5,72.1667 583.5,70.5C 589.858,69.7466 595.858,68.0799 601.5,65.5 Z"/></g>
<g><path style="opacity:1" fill="#7682b9" d="M 165.5,69.5 C 164.506,110.761 164.173,152.094 164.5,193.5C 163.828,173.739 163.494,153.239 163.5,132C 163.5,110.822 164.167,89.9891 165.5,69.5 Z"/></g>
<g><path style="opacity:1" fill="#242222" d="M 543.5,164.5 C 531.167,164.5 518.833,164.5 506.5,164.5C 506.5,163.5 506.5,162.5 506.5,161.5C 509.008,159.763 512.008,158.93 515.5,159C 517.333,158.5 518.5,157.333 519,155.5C 524.156,130.555 528.989,105.555 533.5,80.5C 526.743,80.1226 520.076,80.6226 513.5,82C 509.792,85.9096 506.958,90.4096 505,95.5C 503.301,96.4061 501.467,96.7394 499.5,96.5C 501.17,88.8172 503.004,81.1505 505,73.5C 507.311,70.8445 509.477,71.0112 511.5,74C 531.167,74.6667 550.833,74.6667 570.5,74C 572.783,71.81 575.449,71.1433 578.5,72C 576.804,80.0423 575.804,88.209 575.5,96.5C 573.5,96.5 571.5,96.5 569.5,96.5C 569.665,93.1501 569.498,89.8168 569,86.5C 568.727,84.6711 567.893,83.1711 566.5,82C 559.589,80.6156 552.589,80.1156 545.5,80.5C 541.352,104.533 537.019,128.533 532.5,152.5C 532.54,154.429 532.873,156.262 533.5,158C 537.026,159.337 540.692,159.837 544.5,159.5C 544.371,161.216 544.038,162.883 543.5,164.5 Z"/></g>
<g><path style="opacity:1" fill="#ec3b47" d="M 140.5,77.5 C 141.209,76.596 142.209,76.2627 143.5,76.5C 143.168,132.336 143.501,188.002 144.5,243.5C 144.44,244.043 144.107,244.376 143.5,244.5C 143.165,188.494 142.165,132.827 140.5,77.5 Z"/></g>
<g><path style="opacity:1" fill="#ed212d" d="M 140.5,77.5 C 142.165,132.827 143.165,188.494 143.5,244.5C 144.107,244.376 144.44,244.043 144.5,243.5C 164.833,222.5 185.5,201.833 206.5,181.5C 207.494,191.987 207.828,202.654 207.5,213.5C 192.5,229.167 177.167,244.5 161.5,259.5C 160.957,259.56 160.624,259.893 160.5,260.5C 176.152,261.499 191.819,261.833 207.5,261.5C 207.5,282.833 207.5,304.167 207.5,325.5C 191.422,325.168 176.088,325.501 161.5,326.5C 176.833,342.167 192.167,357.833 207.5,373.5C 207.828,384.346 207.494,395.013 206.5,405.5C 185.5,385.167 164.833,364.5 144.5,343.5C 144.44,342.957 144.107,342.624 143.5,342.5C 142.833,398.332 142.167,453.999 141.5,509.5C 118.37,501.942 97.7034,490.275 79.5,474.5C 79.8333,430.495 79.4999,386.495 78.5,342.5C 77.8933,342.624 77.56,342.957 77.5,343.5C 60.521,361.146 43.1877,378.479 25.5,395.5C 21.901,386.773 19.7343,377.773 19,368.5C 33.1667,354.333 47.3333,340.167 61.5,326C 45.8369,325.5 30.1702,325.333 14.5,325.5C 14.5,304.167 14.5,282.833 14.5,261.5C 30.5785,261.832 45.9118,261.499 60.5,260.5C 45.1667,244.833 29.8333,229.167 14.5,213.5C 14.1722,202.654 14.5056,191.987 15.5,181.5C 36.5,201.833 57.1667,222.5 77.5,243.5C 77.56,244.043 77.8933,244.376 78.5,244.5C 79.4999,197.838 79.8333,151.171 79.5,104.5C 99.2406,94.129 119.574,85.129 140.5,77.5 Z"/></g>
<g><path style="opacity:1" fill="#262324" d="M 673.5,102.5 C 681.371,100.744 687.538,103.077 692,109.5C 693.121,118.421 689.621,124.921 681.5,129C 673.877,132.986 665.877,135.986 657.5,138C 654.781,156.478 661.781,161.478 678.5,153C 681.28,151.188 683.78,149.021 686,146.5C 688.207,147.997 688.874,149.997 688,152.5C 681.858,158.644 674.691,163.144 666.5,166C 650.509,168.346 643.176,161.346 644.5,145C 645.351,124.675 655.017,110.508 673.5,102.5 Z"/></g>
<g><path style="opacity:1" fill="#ed323e" d="M 79.5,104.5 C 79.8333,151.171 79.4999,197.838 78.5,244.5C 77.8933,244.376 77.56,244.043 77.5,243.5C 78.1667,197.167 78.8333,150.833 79.5,104.5 Z"/></g>
<g><path style="opacity:1" fill="#f8f8f8" d="M 670.5,109.5 C 679.682,108.175 682.849,111.842 680,120.5C 674.086,126.647 666.92,130.647 658.5,132.5C 658.497,122.842 662.497,115.175 670.5,109.5 Z"/></g>
<g><path style="opacity:1" fill="#304095" d="M 56.5,111.5 C 57.8326,124.983 58.4993,138.817 58.5,153C 58.3333,166.833 58.1667,180.667 58,194.5C 43.6527,179.986 29.1527,165.653 14.5,151.5C 13.501,139.518 13.1677,127.518 13.5,115.5C 21.84,115.666 30.1733,115.5 38.5,115C 44.7638,114.513 50.7638,113.347 56.5,111.5 Z"/></g>
<g><path style="opacity:1" fill="#716f6f" d="M 506.5,161.5 C 506.5,162.5 506.5,163.5 506.5,164.5C 518.833,164.5 531.167,164.5 543.5,164.5C 531.011,165.495 518.344,165.829 505.5,165.5C 505.232,163.901 505.566,162.568 506.5,161.5 Z"/></g>
<g><path style="opacity:1" fill="#e45a68" d="M 15.5,181.5 C 14.5056,191.987 14.1722,202.654 14.5,213.5C 13.3407,202.341 13.1741,191.008 14,179.5C 14.7172,180.044 15.2172,180.711 15.5,181.5 Z"/></g>
<g><path style="opacity:1" fill="#e35c6a" d="M 207.5,213.5 C 207.828,202.654 207.494,191.987 206.5,181.5C 206.783,180.711 207.283,180.044 208,179.5C 208.826,191.008 208.659,202.341 207.5,213.5 Z"/></g>
<g><path style="opacity:1" fill="#232021" d="M 770.5,285.5 C 771.498,261.006 771.831,236.339 771.5,211.5C 766.305,211.179 761.305,211.513 756.5,212.5C 752.574,212.047 749.408,213.38 747,216.5C 745.119,220.307 743.953,224.307 743.5,228.5C 741.5,228.5 739.5,228.5 737.5,228.5C 738.695,219.88 739.362,211.214 739.5,202.5C 742.599,202.092 744.933,203.259 746.5,206C 766.833,206.667 787.167,206.667 807.5,206C 809.601,203.527 812.267,202.36 815.5,202.5C 815.738,211.171 816.072,219.838 816.5,228.5C 814.712,228.785 813.045,228.452 811.5,227.5C 810.559,222.501 808.559,218.001 805.5,214C 798.254,212.609 790.921,212.109 783.5,212.5C 783.333,237.169 783.5,261.836 784,286.5C 784.5,288.333 785.667,289.5 787.5,290C 790.726,291.199 794.059,291.699 797.5,291.5C 797.5,293.167 797.5,294.833 797.5,296.5C 784.167,296.5 770.833,296.5 757.5,296.5C 757.5,294.833 757.5,293.167 757.5,291.5C 760.91,291.543 764.243,291.043 767.5,290C 769.376,289.082 770.376,287.582 770.5,285.5 Z"/></g>
<g><path style="opacity:1" fill="#262324" d="M 916.5,203.5 C 924.046,203.309 931.379,204.476 938.5,207C 940.903,213.564 941.903,220.397 941.5,227.5C 939.712,227.785 938.045,227.452 936.5,226.5C 933.701,213.84 926.035,208.673 913.5,211C 907.541,213.242 904.541,217.576 904.5,224C 904.718,230.332 907.385,235.332 912.5,239C 920.5,243.667 928.5,248.333 936.5,253C 945.155,260.783 947.655,270.283 944,281.5C 939.041,291.576 930.874,297.076 919.5,298C 910.22,299.478 901.72,297.645 894,292.5C 892.342,285.235 891.176,277.902 890.5,270.5C 892.467,270.261 894.301,270.594 896,271.5C 898.058,280.137 902.891,286.637 910.5,291C 919.437,294.438 926.603,292.271 932,284.5C 935.568,275.321 933.402,267.821 925.5,262C 918.167,257.667 910.833,253.333 903.5,249C 892.887,239.533 890.72,228.366 897,215.5C 902.217,209.313 908.717,205.313 916.5,203.5 Z"/></g>
<g><path style="opacity:1" fill="#8e8c8d" d="M 720.5,206.5 C 708.167,206.5 695.833,206.5 683.5,206.5C 683.5,208.167 683.5,209.833 683.5,211.5C 682.539,209.735 682.205,207.735 682.5,205.5C 695.344,205.171 708.011,205.505 720.5,206.5 Z"/></g>
<g><path style="opacity:1" fill="#908e8f" d="M 999.5,206.5 C 987.5,206.5 975.5,206.5 963.5,206.5C 963.5,208.167 963.5,209.833 963.5,211.5C 962.539,209.735 962.205,207.735 962.5,205.5C 975.011,205.171 987.345,205.505 999.5,206.5 Z"/></g>
<g><path style="opacity:1" fill="#242122" d="M 499.5,206.5 C 514.837,206.333 530.17,206.5 545.5,207C 558.773,209.27 564.94,217.104 564,230.5C 561.932,238.901 556.766,244.401 548.5,247C 571.047,254.092 575.714,267.425 562.5,287C 556.214,291.544 549.214,294.544 541.5,296C 527.171,296.5 512.837,296.667 498.5,296.5C 498.5,294.833 498.5,293.167 498.5,291.5C 503.262,291.724 507.429,290.391 511,287.5C 511.667,263.5 511.667,239.5 511,215.5C 510.5,213.667 509.333,212.5 507.5,212C 504.854,211.503 502.187,211.336 499.5,211.5C 499.5,209.833 499.5,208.167 499.5,206.5 Z"/></g>
<g><path style="opacity:1" fill="#252223" d="M 588.5,206.5 C 603.837,206.333 619.17,206.5 634.5,207C 649.978,210.172 656.478,219.672 654,235.5C 652.777,239.615 650.777,243.282 648,246.5C 644.758,249.205 641.258,251.539 637.5,253.5C 645.15,266.652 654.15,278.819 664.5,290C 666.217,291.559 668.217,292.392 670.5,292.5C 670.5,294.167 670.5,295.833 670.5,297.5C 658.285,298.974 648.785,294.64 642,284.5C 636.958,276.249 631.792,268.082 626.5,260C 622.187,257.706 617.52,256.873 612.5,257.5C 612.334,266.839 612.5,276.173 613,285.5C 615.697,290.248 619.864,292.248 625.5,291.5C 625.5,293.167 625.5,294.833 625.5,296.5C 613.167,296.5 600.833,296.5 588.5,296.5C 588.5,294.833 588.5,293.167 588.5,291.5C 591.568,291.453 594.568,290.953 597.5,290C 598.701,289.097 599.535,287.931 600,286.5C 600.667,262.5 600.667,238.5 600,214.5C 596.673,211.846 592.839,210.846 588.5,211.5C 588.5,209.833 588.5,208.167 588.5,206.5 Z"/></g>
<g><path style="opacity:1" fill="#232021" d="M 720.5,206.5 C 720.5,208.167 720.5,209.833 720.5,211.5C 717.813,211.336 715.146,211.503 712.5,212C 710.333,212.833 708.833,214.333 708,216.5C 707.333,239.833 707.333,263.167 708,286.5C 708.465,287.931 709.299,289.097 710.5,290C 713.757,291.043 717.09,291.543 720.5,291.5C 720.5,293.167 720.5,294.833 720.5,296.5C 707.833,296.5 695.167,296.5 682.5,296.5C 682.5,294.833 682.5,293.167 682.5,291.5C 685.607,291.649 688.607,291.149 691.5,290C 693.333,289.5 694.5,288.333 695,286.5C 695.667,262.833 695.667,239.167 695,215.5C 691.873,212.29 688.039,210.957 683.5,211.5C 683.5,209.833 683.5,208.167 683.5,206.5C 695.833,206.5 708.167,206.5 720.5,206.5 Z"/></g>
<g><path style="opacity:1" fill="#221f20" d="M 833.5,206.5 C 845.833,206.5 858.167,206.5 870.5,206.5C 870.5,208.167 870.5,209.833 870.5,211.5C 865.777,210.553 861.944,211.886 859,215.5C 858.333,239.167 858.333,262.833 859,286.5C 861.658,290.563 865.491,292.229 870.5,291.5C 870.5,293.167 870.5,294.833 870.5,296.5C 858.167,296.5 845.833,296.5 833.5,296.5C 833.5,294.833 833.5,293.167 833.5,291.5C 837.619,291.512 841.452,290.512 845,288.5C 845.333,287.5 845.667,286.5 846,285.5C 846.667,262.5 846.667,239.5 846,216.5C 845.167,214.333 843.667,212.833 841.5,212C 838.854,211.503 836.187,211.336 833.5,211.5C 833.5,209.833 833.5,208.167 833.5,206.5 Z"/></g>
<g><path style="opacity:1" fill="#232021" d="M 999.5,206.5 C 999.5,208.167 999.5,209.833 999.5,211.5C 996.813,211.336 994.146,211.503 991.5,212C 989.859,213.129 988.859,214.629 988.5,216.5C 987.506,225.986 987.173,235.652 987.5,245.5C 1003.34,245.83 1019.01,245.496 1034.5,244.5C 1034.67,234.828 1034.5,225.161 1034,215.5C 1030.83,212.574 1027,211.241 1022.5,211.5C 1022.5,209.833 1022.5,208.167 1022.5,206.5C 1034.83,206.5 1047.17,206.5 1059.5,206.5C 1059.5,208.167 1059.5,209.833 1059.5,211.5C 1056.81,211.336 1054.15,211.503 1051.5,212C 1049.33,212.833 1047.83,214.333 1047,216.5C 1046.33,239.833 1046.33,263.167 1047,286.5C 1047.47,287.931 1048.3,289.097 1049.5,290C 1052.73,291.199 1056.06,291.699 1059.5,291.5C 1059.5,293.167 1059.5,294.833 1059.5,296.5C 1046.83,296.5 1034.17,296.5 1021.5,296.5C 1021.5,294.833 1021.5,293.167 1021.5,291.5C 1024.57,291.453 1027.57,290.953 1030.5,290C 1032.33,289.5 1033.5,288.333 1034,286.5C 1034.5,275.172 1034.67,263.838 1034.5,252.5C 1018.83,252.5 1003.17,252.5 987.5,252.5C 987.333,263.838 987.5,275.172 988,286.5C 988.465,287.931 989.299,289.097 990.5,290C 993.726,291.199 997.059,291.699 1000.5,291.5C 1000.5,293.167 1000.5,294.833 1000.5,296.5C 988.167,296.5 975.833,296.5 963.5,296.5C 963.5,294.833 963.5,293.167 963.5,291.5C 966.568,291.453 969.568,290.953 972.5,290C 973.701,289.097 974.535,287.931 975,286.5C 975.667,262.833 975.667,239.167 975,215.5C 971.911,212.302 968.078,210.969 963.5,211.5C 963.5,209.833 963.5,208.167 963.5,206.5C 975.5,206.5 987.5,206.5 999.5,206.5 Z"/></g>
<g><path style="opacity:1" fill="#fdfdfd" d="M 537.5,244.5 C 533.167,244.5 528.833,244.5 524.5,244.5C 524.5,234.5 524.5,224.5 524.5,214.5C 525.058,213.21 526.058,212.377 527.5,212C 546.24,210.74 553.406,219.24 549,237.5C 546.198,241.486 542.365,243.82 537.5,244.5 Z"/></g>
<g><path style="opacity:1" fill="#f8f8f8" d="M 614.5,212.5 C 630.509,209.31 639.509,215.644 641.5,231.5C 641.202,241.277 636.535,247.777 627.5,251C 622.511,251.499 617.511,251.666 612.5,251.5C 612.333,239.495 612.5,227.495 613,215.5C 613.513,214.473 614.013,213.473 614.5,212.5 Z"/></g>
<g><path style="opacity:1" fill="#989798" d="M 756.5,212.5 C 761.305,211.513 766.305,211.179 771.5,211.5C 771.831,236.339 771.498,261.006 770.5,285.5C 770.5,261.167 770.5,236.833 770.5,212.5C 765.833,212.5 761.167,212.5 756.5,212.5 Z"/></g>
<g><path style="opacity:1" fill="#a7a6a6" d="M 524.5,214.5 C 524.5,224.5 524.5,234.5 524.5,244.5C 528.833,244.5 533.167,244.5 537.5,244.5C 533.03,245.486 528.363,245.819 523.5,245.5C 523.172,234.986 523.506,224.653 524.5,214.5 Z"/></g>
<g><path style="opacity:1" fill="#828080" d="M 988.5,216.5 C 988.5,225.833 988.5,235.167 988.5,244.5C 1003.83,244.5 1019.17,244.5 1034.5,244.5C 1019.01,245.496 1003.34,245.83 987.5,245.5C 987.173,235.652 987.506,225.986 988.5,216.5 Z"/></g>
<g><path style="opacity:1" fill="#f9f9f9" d="M 523.5,251.5 C 533.994,249.718 543.327,252.051 551.5,258.5C 555.835,264.996 556.669,271.996 554,279.5C 551.099,285.545 546.265,289.045 539.5,290C 534.771,290.996 530.271,290.496 526,288.5C 525.138,286.913 524.471,285.246 524,283.5C 523.5,272.839 523.333,262.172 523.5,251.5 Z"/></g>
<g><path style="opacity:1" fill="#ea8b95" d="M 161.5,259.5 C 176.991,260.496 192.658,260.83 208.5,260.5C 208.5,282.5 208.5,304.5 208.5,326.5C 192.833,326.5 177.167,326.5 161.5,326.5C 176.088,325.501 191.422,325.168 207.5,325.5C 207.5,304.167 207.5,282.833 207.5,261.5C 191.819,261.833 176.152,261.499 160.5,260.5C 160.624,259.893 160.957,259.56 161.5,259.5 Z"/></g>
<g><path style="opacity:1" fill="#e76b77" d="M 60.5,260.5 C 45.9118,261.499 30.5785,261.832 14.5,261.5C 14.5,282.833 14.5,304.167 14.5,325.5C 13.5027,304.006 13.1693,282.34 13.5,260.5C 29.1667,260.5 44.8333,260.5 60.5,260.5 Z"/></g>
<g><path style="opacity:1" fill="#242122" d="M 1260.5,344.5 C 1254.36,343.51 1248.02,343.177 1241.5,343.5C 1241.17,367.672 1241.5,391.672 1242.5,415.5C 1242.68,420.601 1245.35,422.934 1250.5,422.5C 1251.92,423.451 1253.59,423.784 1255.5,423.5C 1255.5,424.833 1255.5,426.167 1255.5,427.5C 1242.5,427.5 1229.5,427.5 1216.5,427.5C 1216.5,425.833 1216.5,424.167 1216.5,422.5C 1220.31,422.837 1223.97,422.337 1227.5,421C 1228.86,419.416 1229.53,417.582 1229.5,415.5C 1230.5,391.672 1230.83,367.672 1230.5,343.5C 1223.98,343.177 1217.64,343.51 1211.5,344.5C 1208.36,344.799 1206.19,346.466 1205,349.5C 1203.44,353.014 1202.6,356.681 1202.5,360.5C 1200.5,360.5 1198.5,360.5 1196.5,360.5C 1197.5,351.861 1198.16,343.194 1198.5,334.5C 1201.02,334.128 1203.02,334.961 1204.5,337C 1225.5,337.667 1246.5,337.667 1267.5,337C 1269.32,334.863 1271.65,334.03 1274.5,334.5C 1274.54,342.848 1274.88,351.181 1275.5,359.5C 1273.5,359.5 1271.5,359.5 1269.5,359.5C 1269.12,354.521 1267.45,350.021 1264.5,346C 1263.26,345.209 1261.92,344.709 1260.5,344.5 Z"/></g>
<g><path style="opacity:1" fill="#262324" d="M 1094.5,335.5 C 1102.64,335.461 1110.64,336.461 1118.5,338.5C 1119.31,345.484 1119.98,352.484 1120.5,359.5C 1118.71,359.785 1117.05,359.452 1115.5,358.5C 1113.82,353.639 1111.49,349.139 1108.5,345C 1100.22,339.64 1092.72,340.473 1086,347.5C 1081.35,356.836 1083.18,364.67 1091.5,371C 1099.33,375.08 1107,379.413 1114.5,384C 1125.62,393.938 1127.46,405.438 1120,418.5C 1107.48,430.728 1092.98,433.562 1076.5,427C 1075.07,426.535 1073.9,425.701 1073,424.5C 1071.51,417.206 1070.34,409.873 1069.5,402.5C 1071.54,402.146 1073.37,402.146 1075,402.5C 1078.84,420.495 1089.34,426.661 1106.5,421C 1113.45,413.835 1114.29,406.001 1109,397.5C 1100.09,391.292 1090.92,385.459 1081.5,380C 1070.64,370.313 1068.81,359.147 1076,346.5C 1081.1,340.873 1087.27,337.206 1094.5,335.5 Z"/></g>
<g><path style="opacity:1" fill="#4b4849" d="M 530.5,343.5 C 531.568,342.566 532.901,342.232 534.5,342.5C 534.5,341.167 534.5,339.833 534.5,338.5C 522.833,338.5 511.167,338.5 499.5,338.5C 499.5,339.833 499.5,341.167 499.5,342.5C 501.099,342.232 502.432,342.566 503.5,343.5C 501.833,343.5 500.167,343.5 498.5,343.5C 498.5,341.5 498.5,339.5 498.5,337.5C 510.833,337.5 523.167,337.5 535.5,337.5C 535.5,339.5 535.5,341.5 535.5,343.5C 533.833,343.5 532.167,343.5 530.5,343.5 Z"/></g>
<g><path style="opacity:1" fill="#4a4748" d="M 672.5,338.5 C 683.654,337.505 694.988,337.172 706.5,337.5C 706.5,339.5 706.5,341.5 706.5,343.5C 704.833,343.5 703.167,343.5 701.5,343.5C 702.568,342.566 703.901,342.232 705.5,342.5C 705.5,341.167 705.5,339.833 705.5,338.5C 694.5,338.5 683.5,338.5 672.5,338.5 Z"/></g>
<g><path style="opacity:1" fill="#444142" d="M 949.5,341.5 C 948.596,340.791 948.263,339.791 948.5,338.5C 928.167,338.5 907.833,338.5 887.5,338.5C 887.5,339.833 887.5,341.167 887.5,342.5C 889.099,342.232 890.432,342.566 891.5,343.5C 889.833,343.5 888.167,343.5 886.5,343.5C 886.5,341.5 886.5,339.5 886.5,337.5C 907.5,337.5 928.5,337.5 949.5,337.5C 949.5,338.833 949.5,340.167 949.5,341.5 Z"/></g>
<g><path style="opacity:1" fill="#4a4748" d="M 1178.5,342.5 C 1178.5,341.167 1178.5,339.833 1178.5,338.5C 1166.5,338.5 1154.5,338.5 1142.5,338.5C 1142.5,339.833 1142.5,341.167 1142.5,342.5C 1144.1,342.232 1145.43,342.566 1146.5,343.5C 1144.83,343.5 1143.17,343.5 1141.5,343.5C 1141.5,341.5 1141.5,339.5 1141.5,337.5C 1154.17,337.5 1166.83,337.5 1179.5,337.5C 1179.78,339.415 1179.45,341.081 1178.5,342.5 Z"/></g>
<g><path style="opacity:1" fill="#272425" d="M 503.5,343.5 C 502.432,342.566 501.099,342.232 499.5,342.5C 499.5,341.167 499.5,339.833 499.5,338.5C 511.167,338.5 522.833,338.5 534.5,338.5C 534.5,339.833 534.5,341.167 534.5,342.5C 532.901,342.232 531.568,342.566 530.5,343.5C 527.675,343.081 525.509,344.081 524,346.5C 523.098,364.868 523.431,383.201 525,401.5C 532.425,421.754 545.592,426.588 564.5,416C 569.063,410.653 571.896,404.486 573,397.5C 574.911,380.81 574.911,364.143 573,347.5C 569.702,343.835 565.535,342.502 560.5,343.5C 560.5,341.5 560.5,339.5 560.5,337.5C 571.833,337.5 583.167,337.5 594.5,337.5C 594.5,339.5 594.5,341.5 594.5,343.5C 590.161,342.846 586.327,343.846 583,346.5C 582.667,347.5 582.333,348.5 582,349.5C 581.667,364.5 581.333,379.5 581,394.5C 576.776,423.384 560.276,434.551 531.5,428C 518.595,422.051 511.761,411.884 511,397.5C 510.667,380.5 510.333,363.5 510,346.5C 508.491,344.081 506.325,343.081 503.5,343.5 Z"/></g>
<g><path style="opacity:1" fill="#242122" d="M 672.5,338.5 C 683.5,338.5 694.5,338.5 705.5,338.5C 705.5,339.833 705.5,341.167 705.5,342.5C 703.901,342.232 702.568,342.566 701.5,343.5C 696.939,343.56 694.439,345.893 694,350.5C 693.5,376.831 693.333,403.165 693.5,429.5C 690.348,430.041 687.848,429.041 686,426.5C 667.954,404.626 650.12,382.626 632.5,360.5C 632.217,359.711 631.717,359.044 631,358.5C 630.171,376.671 630.338,394.671 631.5,412.5C 631.765,420.823 636.098,424.156 644.5,422.5C 644.5,424.167 644.5,425.833 644.5,427.5C 633.5,427.5 622.5,427.5 611.5,427.5C 611.5,426.167 611.5,424.833 611.5,423.5C 612.791,423.737 613.791,423.404 614.5,422.5C 619.409,422.092 622.243,419.425 623,414.5C 623.667,393.167 623.667,371.833 623,350.5C 619.706,345.104 614.872,342.77 608.5,343.5C 608.5,341.5 608.5,339.5 608.5,337.5C 615.508,337.334 622.508,337.5 629.5,338C 648.214,360.592 667.048,383.092 686,405.5C 686.667,387.167 686.667,368.833 686,350.5C 683.801,344.051 679.301,341.718 672.5,343.5C 672.5,341.833 672.5,340.167 672.5,338.5 Z"/></g>
<g><path style="opacity:1" fill="#282526" d="M 723.5,337.5 C 735.833,337.5 748.167,337.5 760.5,337.5C 760.5,339.5 760.5,341.5 760.5,343.5C 757.482,343.335 754.482,343.502 751.5,344C 750.667,344.833 749.833,345.667 749,346.5C 748.333,370.5 748.333,394.5 749,418.5C 749.465,419.931 750.299,421.097 751.5,422C 754.482,422.498 757.482,422.665 760.5,422.5C 760.5,424.5 760.5,426.5 760.5,428.5C 748.167,428.5 735.833,428.5 723.5,428.5C 723.5,426.5 723.5,424.5 723.5,422.5C 726.187,422.664 728.854,422.497 731.5,422C 733.333,421.5 734.5,420.333 735,418.5C 735.667,394.5 735.667,370.5 735,346.5C 731.673,343.846 727.839,342.846 723.5,343.5C 723.5,341.5 723.5,339.5 723.5,337.5 Z"/></g>
<g><path style="opacity:1" fill="#262324" d="M 776.5,337.5 C 788.167,337.5 799.833,337.5 811.5,337.5C 811.739,339.467 811.406,341.301 810.5,343C 807.905,343.226 805.405,343.726 803,344.5C 802.333,346.167 802.333,347.833 803,349.5C 810.284,369.358 817.951,389.025 826,408.5C 834.06,388.379 841.56,368.046 848.5,347.5C 848.392,346.558 848.059,345.725 847.5,345C 844.243,343.957 840.91,343.457 837.5,343.5C 837.5,341.5 837.5,339.5 837.5,337.5C 848.5,337.5 859.5,337.5 870.5,337.5C 870.5,339.5 870.5,341.5 870.5,343.5C 863.638,342.535 858.805,345.202 856,351.5C 844.941,377.181 834.775,403.181 825.5,429.5C 822.921,429.917 820.754,429.25 819,427.5C 809.255,400.597 798.922,373.931 788,347.5C 784.96,344.034 781.126,342.7 776.5,343.5C 776.5,341.5 776.5,339.5 776.5,337.5 Z"/></g>
<g><path style="opacity:1" fill="#262324" d="M 949.5,341.5 C 950.165,347.477 950.498,353.477 950.5,359.5C 948.5,359.5 946.5,359.5 944.5,359.5C 944.222,355.268 943.056,351.268 941,347.5C 939.421,345.959 937.587,344.792 935.5,344C 927.323,343.177 919.323,343.344 911.5,344.5C 910.505,355.654 910.172,366.988 910.5,378.5C 917.354,378.824 924.021,378.491 930.5,377.5C 932.484,377.617 934.15,376.95 935.5,375.5C 936.785,372.979 937.452,370.313 937.5,367.5C 939.167,367.5 940.833,367.5 942.5,367.5C 942.5,376.5 942.5,385.5 942.5,394.5C 940.833,394.5 939.167,394.5 937.5,394.5C 937.802,390.206 936.136,387.039 932.5,385C 925.508,384.5 918.508,384.334 911.5,384.5C 911.064,396.243 911.564,407.91 913,419.5C 916.765,421.962 920.932,422.962 925.5,422.5C 931.301,422.533 936.968,421.7 942.5,420C 944,418.5 945.5,417 947,415.5C 948.773,411.613 950.773,407.947 953,404.5C 955.164,404.666 956.331,405.833 956.5,408C 955.099,414.836 953.766,421.669 952.5,428.5C 930.167,428.5 907.833,428.5 885.5,428.5C 885.5,426.5 885.5,424.5 885.5,422.5C 888.518,422.665 891.518,422.498 894.5,422C 896.333,421.5 897.5,420.333 898,418.5C 898.667,394.5 898.667,370.5 898,346.5C 896.157,344.829 893.991,343.829 891.5,343.5C 890.432,342.566 889.099,342.232 887.5,342.5C 887.5,341.167 887.5,339.833 887.5,338.5C 907.833,338.5 928.167,338.5 948.5,338.5C 948.263,339.791 948.596,340.791 949.5,341.5 Z"/></g>
<g><path style="opacity:1" fill="#242122" d="M 1006.5,422.5 C 1007.57,423.434 1008.9,423.768 1010.5,423.5C 1010.5,424.833 1010.5,426.167 1010.5,427.5C 998.5,427.5 986.5,427.5 974.5,427.5C 974.5,425.833 974.5,424.167 974.5,422.5C 977.187,422.664 979.854,422.497 982.5,422C 984.333,421.5 985.5,420.333 986,418.5C 986.667,394.5 986.667,370.5 986,346.5C 982.673,343.846 978.839,342.846 974.5,343.5C 974.5,341.5 974.5,339.5 974.5,337.5C 989.504,337.333 1004.5,337.5 1019.5,338C 1040.07,343.712 1045.57,356.212 1036,375.5C 1032.07,379.205 1027.9,382.538 1023.5,385.5C 1031.15,398.652 1040.15,410.819 1050.5,422C 1054.9,422.675 1056.9,425.175 1056.5,429.5C 1047.9,430.464 1040.23,428.297 1033.5,423C 1025.43,412.855 1018.09,402.188 1011.5,391C 1007.3,389.633 1002.97,389.133 998.5,389.5C 998.334,399.172 998.5,408.839 999,418.5C 1000.58,421.539 1003.08,422.872 1006.5,422.5 Z"/></g>
<g><path style="opacity:1" fill="#221f20" d="M 1178.5,342.5 C 1176.03,343.317 1173.36,343.817 1170.5,344C 1168.67,344.5 1167.5,345.667 1167,347.5C 1166.33,371.167 1166.33,394.833 1167,418.5C 1168.54,421.521 1171.04,422.854 1174.5,422.5C 1175.57,423.434 1176.9,423.768 1178.5,423.5C 1178.5,424.833 1178.5,426.167 1178.5,427.5C 1166.5,427.5 1154.5,427.5 1142.5,427.5C 1142.5,426.167 1142.5,424.833 1142.5,423.5C 1144.1,423.768 1145.43,423.434 1146.5,422.5C 1149.78,422.731 1152.28,421.397 1154,418.5C 1154.67,394.833 1154.67,371.167 1154,347.5C 1152.46,344.479 1149.96,343.146 1146.5,343.5C 1145.43,342.566 1144.1,342.232 1142.5,342.5C 1142.5,341.167 1142.5,339.833 1142.5,338.5C 1154.5,338.5 1166.5,338.5 1178.5,338.5C 1178.5,339.833 1178.5,341.167 1178.5,342.5 Z"/></g>
<g><path style="opacity:1" fill="#252223" d="M 1355.5,427.5 C 1342.5,427.5 1329.5,427.5 1316.5,427.5C 1316.5,426.167 1316.5,424.833 1316.5,423.5C 1317.79,423.737 1318.79,423.404 1319.5,422.5C 1323.68,423.296 1326.85,421.963 1329,418.5C 1329.67,408.833 1329.67,399.167 1329,389.5C 1321.52,375.206 1313.52,361.206 1305,347.5C 1301.96,344.034 1298.13,342.7 1293.5,343.5C 1293.5,341.5 1293.5,339.5 1293.5,337.5C 1304.83,337.5 1316.17,337.5 1327.5,337.5C 1327.79,339.288 1327.45,340.955 1326.5,342.5C 1323.61,343.006 1320.94,344.006 1318.5,345.5C 1324.68,357.198 1331.34,368.531 1338.5,379.5C 1344.25,369.661 1349.75,359.661 1355,349.5C 1355.74,347.559 1355.58,345.726 1354.5,344C 1351.85,343.503 1349.19,343.336 1346.5,343.5C 1346.5,341.5 1346.5,339.5 1346.5,337.5C 1357.17,337.5 1367.83,337.5 1378.5,337.5C 1378.74,339.467 1378.41,341.301 1377.5,343C 1371.76,342.619 1367.26,344.786 1364,349.5C 1355.89,362.046 1348.56,375.046 1342,388.5C 1341.33,398.167 1341.33,407.833 1342,417.5C 1342.78,419.286 1343.95,420.786 1345.5,422C 1348.82,422.498 1352.15,422.665 1355.5,422.5C 1355.5,424.167 1355.5,425.833 1355.5,427.5 Z"/></g>
<g><path style="opacity:1" fill="#ed323e" d="M 77.5,343.5 C 77.56,342.957 77.8933,342.624 78.5,342.5C 79.4999,386.495 79.8333,430.495 79.5,474.5C 78.8333,430.833 78.1667,387.167 77.5,343.5 Z"/></g>
<g><path style="opacity:1" fill="#ec3b47" d="M 144.5,343.5 C 143.833,399.001 143.167,454.668 142.5,510.5C 141.893,510.376 141.56,510.043 141.5,509.5C 142.167,453.999 142.833,398.332 143.5,342.5C 144.107,342.624 144.44,342.957 144.5,343.5 Z"/></g>
<g><path style="opacity:1" fill="#fcfcfc" d="M 1012.5,382.5 C 1008.17,382.5 1003.83,382.5 999.5,382.5C 999.5,370.5 999.5,358.5 999.5,346.5C 999.577,345.25 1000.24,344.417 1001.5,344C 1021.57,342.062 1029.73,350.895 1026,370.5C 1023.82,377.185 1019.32,381.185 1012.5,382.5 Z"/></g>
<g><path style="opacity:1" fill="#7a7879" d="M 1211.5,344.5 C 1217.64,343.51 1223.98,343.177 1230.5,343.5C 1230.83,367.672 1230.5,391.672 1229.5,415.5C 1229.5,391.833 1229.5,368.167 1229.5,344.5C 1223.5,344.5 1217.5,344.5 1211.5,344.5 Z"/></g>
<g><path style="opacity:1" fill="#676465" d="M 1260.5,344.5 C 1254.5,344.5 1248.5,344.5 1242.5,344.5C 1242.5,368.167 1242.5,391.833 1242.5,415.5C 1241.5,391.672 1241.17,367.672 1241.5,343.5C 1248.02,343.177 1254.36,343.51 1260.5,344.5 Z"/></g>
<g><path style="opacity:1" fill="#6a6869" d="M 911.5,344.5 C 911.5,355.5 911.5,366.5 911.5,377.5C 917.833,377.5 924.167,377.5 930.5,377.5C 924.021,378.491 917.354,378.824 910.5,378.5C 910.172,366.988 910.505,355.654 911.5,344.5 Z"/></g>
<g><path style="opacity:1" fill="#c9c8c8" d="M 999.5,346.5 C 999.5,358.5 999.5,370.5 999.5,382.5C 1003.83,382.5 1008.17,382.5 1012.5,382.5C 1008.03,383.486 1003.36,383.819 998.5,383.5C 998.171,370.989 998.505,358.655 999.5,346.5 Z"/></g>
<g><path style="opacity:1" fill="#747273" d="M 249.5,359.5 C 243.833,359.5 238.167,359.5 232.5,359.5C 232.5,419.833 232.5,480.167 232.5,540.5C 231.501,480.002 231.168,419.336 231.5,358.5C 237.69,358.177 243.69,358.51 249.5,359.5 Z"/></g>
<g><path style="opacity:1" fill="#221f20" d="M 249.5,359.5 C 279.612,360.969 309.279,365.469 338.5,373C 365.279,377.935 392.279,379.768 419.5,378.5C 406.223,429.592 376.889,468.425 331.5,495C 310.332,504.722 288.999,514.056 267.5,523C 255.78,528.86 244.114,534.693 232.5,540.5C 232.5,480.167 232.5,419.833 232.5,359.5C 238.167,359.5 243.833,359.5 249.5,359.5 Z"/></g>
<g><path style="opacity:1" fill="#c8c7c7" d="M 632.5,360.5 C 631.503,377.659 631.17,394.992 631.5,412.5C 630.338,394.671 630.171,376.671 631,358.5C 631.717,359.044 632.217,359.711 632.5,360.5 Z"/></g>
<g><path style="opacity:1" fill="#4d4a4b" d="M 942.5,367.5 C 943.494,376.652 943.827,385.985 943.5,395.5C 941.265,395.795 939.265,395.461 937.5,394.5C 939.167,394.5 940.833,394.5 942.5,394.5C 942.5,385.5 942.5,376.5 942.5,367.5 Z"/></g>
<g><path style="opacity:1" fill="#e35c6b" d="M 207.5,373.5 C 208.659,384.659 208.826,395.992 208,407.5C 207.283,406.956 206.783,406.289 206.5,405.5C 207.494,395.013 207.828,384.346 207.5,373.5 Z"/></g>
<g><path style="opacity:1" fill="#8691c1" d="M 56.5,393.5 C 56.56,392.957 56.8933,392.624 57.5,392.5C 58.8333,412.5 58.8333,432.5 57.5,452.5C 56.8933,452.376 56.56,452.043 56.5,451.5C 57.8333,432.167 57.8333,412.833 56.5,393.5 Z"/></g>
<g><path style="opacity:1" fill="#7682b9" d="M 165.5,393.5 C 164.501,435.33 164.168,477.33 164.5,519.5C 163.169,477.331 163.169,434.998 164.5,392.5C 165.107,392.624 165.44,392.957 165.5,393.5 Z"/></g>
<g><path style="opacity:1" fill="#2c3e93" d="M 56.5,393.5 C 57.8333,412.833 57.8333,432.167 56.5,451.5C 47.927,440.704 40.5937,429.038 34.5,416.5C 41.8548,408.813 49.1881,401.146 56.5,393.5 Z"/></g>
<g><path style="opacity:1" fill="#2d3e93" d="M 165.5,393.5 C 179.146,407.812 193.146,421.812 207.5,435.5C 208.667,470.829 208.833,506.162 208,541.5C 193.831,533.499 179.331,526.166 164.5,519.5C 164.168,477.33 164.501,435.33 165.5,393.5 Z"/></g>
<g><path style="opacity:1" fill="#504e4f" d="M 614.5,422.5 C 613.791,423.404 612.791,423.737 611.5,423.5C 611.5,424.833 611.5,426.167 611.5,427.5C 622.5,427.5 633.5,427.5 644.5,427.5C 633.346,428.495 622.012,428.828 610.5,428.5C 610.5,426.5 610.5,424.5 610.5,422.5C 611.833,422.5 613.167,422.5 614.5,422.5 Z"/></g>
<g><path style="opacity:1" fill="#605e5f" d="M 974.5,422.5 C 974.5,424.167 974.5,425.833 974.5,427.5C 986.5,427.5 998.5,427.5 1010.5,427.5C 1010.5,426.167 1010.5,424.833 1010.5,423.5C 1008.9,423.768 1007.57,423.434 1006.5,422.5C 1008.17,422.5 1009.83,422.5 1011.5,422.5C 1011.5,424.5 1011.5,426.5 1011.5,428.5C 998.833,428.5 986.167,428.5 973.5,428.5C 973.205,426.265 973.539,424.265 974.5,422.5 Z"/></g>
<g><path style="opacity:1" fill="#595757" d="M 1146.5,422.5 C 1145.43,423.434 1144.1,423.768 1142.5,423.5C 1142.5,424.833 1142.5,426.167 1142.5,427.5C 1154.5,427.5 1166.5,427.5 1178.5,427.5C 1178.5,426.167 1178.5,424.833 1178.5,423.5C 1176.9,423.768 1175.57,423.434 1174.5,422.5C 1176.17,422.5 1177.83,422.5 1179.5,422.5C 1179.5,424.5 1179.5,426.5 1179.5,428.5C 1166.83,428.5 1154.17,428.5 1141.5,428.5C 1141.5,426.5 1141.5,424.5 1141.5,422.5C 1143.17,422.5 1144.83,422.5 1146.5,422.5 Z"/></g>
<g><path style="opacity:1" fill="#504e4e" d="M 1250.5,422.5 C 1252.5,422.5 1254.5,422.5 1256.5,422.5C 1256.5,424.5 1256.5,426.5 1256.5,428.5C 1242.99,428.829 1229.66,428.496 1216.5,427.5C 1229.5,427.5 1242.5,427.5 1255.5,427.5C 1255.5,426.167 1255.5,424.833 1255.5,423.5C 1253.59,423.784 1251.92,423.451 1250.5,422.5 Z"/></g>
<g><path style="opacity:1" fill="#585656" d="M 1319.5,422.5 C 1318.79,423.404 1317.79,423.737 1316.5,423.5C 1316.5,424.833 1316.5,426.167 1316.5,427.5C 1329.5,427.5 1342.5,427.5 1355.5,427.5C 1342.34,428.496 1329.01,428.829 1315.5,428.5C 1315.5,426.5 1315.5,424.5 1315.5,422.5C 1316.83,422.5 1318.17,422.5 1319.5,422.5 Z"/></g>
<g><path style="opacity:1" fill="#686667" d="M 597.5,473.5 C 593.167,472.167 588.833,472.167 584.5,473.5C 583.957,473.44 583.624,473.107 583.5,472.5C 588.5,471.167 593.5,471.167 598.5,472.5C 598.376,473.107 598.043,473.44 597.5,473.5 Z"/></g>
<g><path style="opacity:1" fill="#626061" d="M 694.5,482.5 C 695.479,479.375 695.813,476.042 695.5,472.5C 682.5,472.5 669.5,472.5 656.5,472.5C 669.087,471.501 682.42,471.168 696.5,471.5C 696.666,475.846 696.499,480.179 696,484.5C 695.283,483.956 694.783,483.289 694.5,482.5 Z"/></g>
<g><path style="opacity:1" fill="#272425" d="M 760.5,509.5 C 765.64,508.512 770.974,508.179 776.5,508.5C 775.68,510.14 774.847,511.807 774,513.5C 773.5,521.827 773.334,530.16 773.5,538.5C 760.301,542.91 747.301,542.41 734.5,537C 724.277,529.546 719.277,519.38 719.5,506.5C 720.309,483.524 732.142,471.857 755,471.5C 761.265,471.424 767.432,472.091 773.5,473.5C 773.666,478.179 773.499,482.845 773,487.5C 766.763,479.309 758.596,476.476 748.5,479C 739.693,481.14 734.193,486.64 732,495.5C 731.333,502.5 731.333,509.5 732,516.5C 733.318,525.148 738.152,530.648 746.5,533C 751.823,533.499 757.156,533.666 762.5,533.5C 762.666,526.825 762.5,520.158 762,513.5C 761.59,512.099 761.09,510.766 760.5,509.5 Z"/></g>
<g><path style="opacity:1" fill="#686667" d="M 810.5,473.5 C 804.5,472.167 798.5,472.167 792.5,473.5C 791.711,473.217 791.044,472.717 790.5,472C 797.833,471.333 805.167,471.333 812.5,472C 811.956,472.717 811.289,473.217 810.5,473.5 Z"/></g>
<g><path style="opacity:1" fill="#676565" d="M 847.5,472.5 C 841.974,472.179 836.64,472.512 831.5,473.5C 830.711,473.217 830.044,472.717 829.5,472C 836.896,471.187 842.896,471.353 847.5,472.5 Z"/></g>
<g><path style="opacity:1" fill="#242122" d="M 498.5,472.5 C 504.319,471.347 510.319,471.181 516.5,472C 514.354,474.795 513.187,477.961 513,481.5C 512.333,496.5 512.333,511.5 513,526.5C 513.346,531.276 514.179,535.942 515.5,540.5C 510.125,540.828 504.792,540.495 499.5,539.5C 500.432,537.205 501.265,534.871 502,532.5C 502.667,514.5 502.667,496.5 502,478.5C 501.576,475.975 500.41,473.975 498.5,472.5 Z"/></g>
<g><path style="opacity:1" fill="#242122" d="M 585.5,526.5 C 585.783,527.289 586.283,527.956 587,528.5C 587.828,512.994 587.661,497.661 586.5,482.5C 586.793,479.246 586.126,476.246 584.5,473.5C 588.833,472.167 593.167,472.167 597.5,473.5C 597.291,474.922 596.791,476.255 596,477.5C 595.5,498.497 595.333,519.497 595.5,540.5C 590.786,540.827 586.12,540.493 581.5,539.5C 572,521.167 562.5,502.833 553,484.5C 552.333,499.833 552.333,515.167 553,530.5C 553.197,533.692 554.03,536.692 555.5,539.5C 550.88,540.493 546.214,540.827 541.5,540.5C 542.224,537.157 543.057,533.824 544,530.5C 544.883,512.469 544.55,494.469 543,476.5C 542.293,474.919 541.46,473.419 540.5,472C 546.196,471.17 551.863,471.337 557.5,472.5C 567.295,490.285 576.628,508.285 585.5,526.5 Z"/></g>
<g><path style="opacity:1" fill="#232021" d="M 656.5,472.5 C 669.5,472.5 682.5,472.5 695.5,472.5C 695.813,476.042 695.479,479.375 694.5,482.5C 692.003,480.129 689.003,479.129 685.5,479.5C 680.36,478.512 675.026,478.179 669.5,478.5C 669.174,486.684 669.508,494.684 670.5,502.5C 675.511,502.666 680.511,502.499 685.5,502C 688.565,501.632 691.232,500.465 693.5,498.5C 693.821,503.695 693.487,508.695 692.5,513.5C 690.316,511.415 687.649,510.415 684.5,510.5C 679.695,509.513 674.695,509.179 669.5,509.5C 669.174,517.684 669.508,525.684 670.5,533.5C 677.574,533.839 684.574,533.339 691.5,532C 694,530.833 695.833,529 697,526.5C 697.499,531.155 697.666,535.821 697.5,540.5C 683.817,540.833 670.15,540.499 656.5,539.5C 657.932,535.981 658.766,532.314 659,528.5C 659.667,513.167 659.667,497.833 659,482.5C 658.853,478.912 658.02,475.579 656.5,472.5 Z"/></g>
<g><path style="opacity:1" fill="#252223" d="M 792.5,473.5 C 798.5,472.167 804.5,472.167 810.5,473.5C 809.489,475.402 809.322,477.402 810,479.5C 813.139,487.112 816.806,494.446 821,501.5C 825.78,493.774 829.613,485.607 832.5,477C 832.352,475.744 832.018,474.577 831.5,473.5C 836.64,472.512 841.974,472.179 847.5,472.5C 840.093,484.307 832.926,496.307 826,508.5C 825.333,516.167 825.333,523.833 826,531.5C 826.269,534.352 827.103,537.018 828.5,539.5C 822.863,540.663 817.196,540.83 811.5,540C 812.46,538.581 813.293,537.081 814,535.5C 814.667,527.167 814.667,518.833 814,510.5C 807.768,497.48 800.601,485.146 792.5,473.5 Z"/></g>
<g><path style="opacity:1" fill="#242222" d="M 864.5,471.5 C 873.173,471.334 881.84,471.5 890.5,472C 905.779,475.044 911.612,484.21 908,499.5C 904.825,508.012 898.658,512.512 889.5,513C 885.514,513.499 881.514,513.666 877.5,513.5C 877.314,520.881 877.814,528.214 879,535.5C 879.707,537.081 880.54,538.581 881.5,540C 875.804,540.83 870.137,540.663 864.5,539.5C 865.432,537.205 866.265,534.871 867,532.5C 867.667,514.5 867.667,496.5 867,478.5C 866.153,476.146 865.32,473.812 864.5,471.5 Z"/></g>
<g><path style="opacity:1" fill="#252223" d="M 965.5,479.5 C 962.375,478.521 959.042,478.187 955.5,478.5C 955.17,494.675 955.504,510.675 956.5,526.5C 956.148,531.006 956.815,535.339 958.5,539.5C 953.167,540.833 947.833,540.833 942.5,539.5C 944.224,536.05 944.891,532.383 944.5,528.5C 945.497,512.008 945.83,495.342 945.5,478.5C 941.629,478.185 937.962,478.518 934.5,479.5C 931.231,479.884 928.397,481.218 926,483.5C 925.501,479.514 925.334,475.514 925.5,471.5C 942.167,471.5 958.833,471.5 975.5,471.5C 975.666,475.514 975.499,479.514 975,483.5C 972.297,481.098 969.13,479.765 965.5,479.5 Z"/></g>
<g><path style="opacity:1" fill="#9b999a" d="M 685.5,479.5 C 680.5,479.5 675.5,479.5 670.5,479.5C 670.5,487.167 670.5,494.833 670.5,502.5C 669.508,494.684 669.174,486.684 669.5,478.5C 675.026,478.179 680.36,478.512 685.5,479.5 Z"/></g>
<g><path style="opacity:1" fill="#f5f5f5" d="M 877.5,478.5 C 892.675,476.84 899.175,483.507 897,498.5C 892.658,505.947 886.158,508.614 877.5,506.5C 877.5,497.167 877.5,487.833 877.5,478.5 Z"/></g>
<g><path style="opacity:1" fill="#b6b5b5" d="M 934.5,479.5 C 937.962,478.518 941.629,478.185 945.5,478.5C 945.83,495.342 945.497,512.008 944.5,528.5C 944.5,512.167 944.5,495.833 944.5,479.5C 941.167,479.5 937.833,479.5 934.5,479.5 Z"/></g>
<g><path style="opacity:1" fill="#bdbcbc" d="M 965.5,479.5 C 962.5,479.5 959.5,479.5 956.5,479.5C 956.5,495.167 956.5,510.833 956.5,526.5C 955.504,510.675 955.17,494.675 955.5,478.5C 959.042,478.187 962.375,478.521 965.5,479.5 Z"/></g>
<g><path style="opacity:1" fill="#898888" d="M 586.5,482.5 C 587.661,497.661 587.828,512.994 587,528.5C 586.283,527.956 585.783,527.289 585.5,526.5C 586.496,512.01 586.829,497.343 586.5,482.5 Z"/></g>
<g><path style="opacity:1" fill="#a4a3a4" d="M 692.5,513.5 C 693.487,508.695 693.821,503.695 693.5,498.5C 694.222,500.225 694.555,502.725 694.5,506C 694.167,508.833 693.833,511.667 693.5,514.5C 692.893,514.376 692.56,514.043 692.5,513.5 Z"/></g>
<g><path style="opacity:1" fill="#b3b2b3" d="M 776.5,508.5 C 770.974,508.179 765.64,508.512 760.5,509.5C 759.957,509.44 759.624,509.107 759.5,508.5C 765.32,507.184 770.987,507.184 776.5,508.5 Z"/></g>
<g><path style="opacity:1" fill="#aaa9a9" d="M 684.5,510.5 C 679.833,510.5 675.167,510.5 670.5,510.5C 670.5,518.167 670.5,525.833 670.5,533.5C 669.508,525.684 669.174,517.684 669.5,509.5C 674.695,509.179 679.695,509.513 684.5,510.5 Z"/></g>
</svg>
