<?xml version="1.0" encoding="UTF-8"?>
<!DOCTYPE svg PUBLIC "-//W3C//DTD SVG 1.1//EN" "http://www.w3.org/Graphics/SVG/1.1/DTD/svg11.dtd">
<svg xmlns="http://www.w3.org/2000/svg" version="1.1" width="256px" height="256px" style="shape-rendering:geometricPrecision; text-rendering:geometricPrecision; image-rendering:optimizeQuality; fill-rule:evenodd; clip-rule:evenodd" xmlns:xlink="http://www.w3.org/1999/xlink">
<g><path style="opacity:0.971" fill="#f9b300" d="M 124.5,31.5 C 126.792,31.2436 128.959,31.5769 131,32.5C 131.802,37.419 131.635,42.2523 130.5,47C 128.231,47.7581 126.064,47.5914 124,46.5C 123.222,41.4158 123.389,36.4158 124.5,31.5 Z"/></g>
<g><path style="opacity:0.922" fill="#c70951" d="M 104.5,41.5 C 106.527,41.3379 108.527,41.5045 110.5,42C 112.667,44.1667 114.833,46.3333 117,48.5C 118.833,54.6667 116.667,56.8333 110.5,55C 108.333,52.8333 106.167,50.6667 104,48.5C 103.297,46.0709 103.463,43.7375 104.5,41.5 Z"/></g>
<g><path style="opacity:0.905" fill="#01a0c7" d="M 144.5,41.5 C 150.674,40.1729 152.841,42.5062 151,48.5C 148.833,50.6667 146.667,52.8333 144.5,55C 138.333,56.8333 136.167,54.6667 138,48.5C 140.372,46.2968 142.539,43.9635 144.5,41.5 Z"/></g>
<g><path style="opacity:0.998" fill="#eeeeee" d="M 127.5,67.5 C 127.5,76.8333 127.5,86.1667 127.5,95.5C 117.571,96.0472 111.071,101.047 108,110.5C 107.304,114.905 107.637,119.239 109,123.5C 111.725,127.385 114.225,131.385 116.5,135.5C 103.087,135.814 89.7541,135.481 76.5,134.5C 75.512,113.576 75.1787,92.5755 75.5,71.5C 75.2317,68.8806 75.565,66.3806 76.5,64C 92.1667,63.3333 107.833,63.3333 123.5,64C 125.35,64.6897 126.684,65.8564 127.5,67.5 Z"/></g>
<g><path style="opacity:0.997" fill="#d0d1d0" d="M 179.5,71.5 C 179.5,92.1667 179.5,112.833 179.5,133.5C 178.711,133.783 178.044,134.283 177.5,135C 164.504,135.5 151.504,135.667 138.5,135.5C 140.749,131.402 143.249,127.402 146,123.5C 149.74,111.71 146.24,102.877 135.5,97C 132.883,96.1785 130.216,95.6785 127.5,95.5C 127.5,86.1667 127.5,76.8333 127.5,67.5C 128.316,65.8564 129.65,64.6897 131.5,64C 147.167,63.3333 162.833,63.3333 178.5,64C 179.435,66.3806 179.768,68.8806 179.5,71.5 Z"/></g>
<g><path style="opacity:0.997" fill="#009fc7" d="M 75.5,71.5 C 75.1787,92.5755 75.512,113.576 76.5,134.5C 75.2006,136.153 75.5339,137.653 77.5,139C 90.9082,139.185 104.242,139.685 117.5,140.5C 117.5,141.5 117.5,142.5 117.5,143.5C 117.5,144.167 117.5,144.833 117.5,145.5C 100.923,145.825 84.4226,145.492 68,144.5C 67.3333,120.5 67.3333,96.5 68,72.5C 70.3806,71.565 72.8806,71.2317 75.5,71.5 Z"/></g>
<g><path style="opacity:0.997" fill="#019fc7" d="M 179.5,71.5 C 182.119,71.2317 184.619,71.565 187,72.5C 187.667,96.5 187.667,120.5 187,144.5C 170.577,145.492 154.077,145.825 137.5,145.5C 137.5,144.833 137.5,144.167 137.5,143.5C 137.194,140.615 137.527,137.948 138.5,135.5C 138.5,136.833 138.5,138.167 138.5,139.5C 151.504,139.667 164.504,139.5 177.5,139C 179.155,137.556 179.822,135.722 179.5,133.5C 179.5,112.833 179.5,92.1667 179.5,71.5 Z"/></g>
<g><path style="opacity:1" fill="#0c5178" d="M 82.5,73.5 C 88.8421,73.3338 95.1754,73.5005 101.5,74C 102.833,75 102.833,76 101.5,77C 95.1667,77.6667 88.8333,77.6667 82.5,77C 81.3157,75.8545 81.3157,74.6879 82.5,73.5 Z"/></g>
<g><path style="opacity:1" fill="#14547b" d="M 107.5,73.5 C 110.518,73.3354 113.518,73.502 116.5,74C 117.833,75 117.833,76 116.5,77C 113.5,77.6667 110.5,77.6667 107.5,77C 106.316,75.8545 106.316,74.6879 107.5,73.5 Z"/></g>
<g><path style="opacity:1" fill="#0d5178" d="M 138.5,73.5 C 144.842,73.3338 151.175,73.5005 157.5,74C 158.833,75 158.833,76 157.5,77C 151.175,77.4995 144.842,77.6662 138.5,77.5C 138.5,76.1667 138.5,74.8333 138.5,73.5 Z"/></g>
<g><path style="opacity:1" fill="#13547a" d="M 163.5,73.5 C 166.518,73.3354 169.518,73.502 172.5,74C 173.833,75 173.833,76 172.5,77C 169.5,77.6667 166.5,77.6667 163.5,77C 162.316,75.8545 162.316,74.6879 163.5,73.5 Z"/></g>
<g><path style="opacity:1" fill="#0c5078" d="M 81.5,81.5 C 93.1714,81.3335 104.838,81.5001 116.5,82C 117.833,83 117.833,84 116.5,85C 104.838,85.4999 93.1714,85.6665 81.5,85.5C 81.5,84.1667 81.5,82.8333 81.5,81.5 Z"/></g>
<g><path style="opacity:1" fill="#0b5078" d="M 138.5,81.5 C 149.838,81.3335 161.172,81.5001 172.5,82C 173.833,83 173.833,84 172.5,85C 161.167,85.6667 149.833,85.6667 138.5,85C 137.316,83.8545 137.316,82.6879 138.5,81.5 Z"/></g>
<g><path style="opacity:1" fill="#14547b" d="M 82.5,89.5 C 85.8333,89.5 89.1667,89.5 92.5,89.5C 92.5,90.8333 92.5,92.1667 92.5,93.5C 89.1501,93.665 85.8168,93.4983 82.5,93C 81.3157,91.8545 81.3157,90.6879 82.5,89.5 Z"/></g>
<g><path style="opacity:1" fill="#0e5179" d="M 97.5,89.5 C 103.842,89.3338 110.175,89.5005 116.5,90C 117.833,91 117.833,92 116.5,93C 110.175,93.4995 103.842,93.6662 97.5,93.5C 97.5,92.1667 97.5,90.8333 97.5,89.5 Z"/></g>
<g><path style="opacity:1" fill="#15547b" d="M 138.5,89.5 C 141.833,89.5 145.167,89.5 148.5,89.5C 148.5,90.8333 148.5,92.1667 148.5,93.5C 145.167,93.5 141.833,93.5 138.5,93.5C 138.5,92.1667 138.5,90.8333 138.5,89.5 Z"/></g>
<g><path style="opacity:1" fill="#0d5179" d="M 153.5,89.5 C 159.842,89.3338 166.175,89.5005 172.5,90C 173.833,91 173.833,92 172.5,93C 166.175,93.4995 159.842,93.6662 153.5,93.5C 153.5,92.1667 153.5,90.8333 153.5,89.5 Z"/></g>
<g><path style="opacity:1" fill="#f7b207" d="M 127.5,95.5 C 130.216,95.6785 132.883,96.1785 135.5,97C 146.24,102.877 149.74,111.71 146,123.5C 143.249,127.402 140.749,131.402 138.5,135.5C 137.527,137.948 137.194,140.615 137.5,143.5C 134.833,143.5 132.167,143.5 129.5,143.5C 129.5,136.167 129.5,128.833 129.5,121.5C 131.094,121.92 132.594,122.586 134,123.5C 135.946,123.237 136.612,122.237 136,120.5C 134.855,119.364 133.688,118.364 132.5,117.5C 134.722,116.464 135.888,114.797 136,112.5C 135.439,111.978 134.772,111.645 134,111.5C 132.594,112.414 131.094,113.08 129.5,113.5C 129.949,111.023 129.283,109.023 127.5,107.5C 125.717,109.023 125.051,111.023 125.5,113.5C 123.906,113.08 122.406,112.414 121,111.5C 119.054,111.763 118.388,112.763 119,114.5C 120.145,115.636 121.312,116.636 122.5,117.5C 120.278,118.536 119.112,120.203 119,122.5C 119.561,123.022 120.228,123.355 121,123.5C 122.406,122.586 123.906,121.92 125.5,121.5C 125.5,128.833 125.5,136.167 125.5,143.5C 122.833,143.5 120.167,143.5 117.5,143.5C 117.5,142.5 117.5,141.5 117.5,140.5C 117.634,138.708 117.301,137.042 116.5,135.5C 114.225,131.385 111.725,127.385 109,123.5C 107.637,119.239 107.304,114.905 108,110.5C 111.071,101.047 117.571,96.0472 127.5,95.5 Z"/></g>
<g><path style="opacity:1" fill="#0d5179" d="M 82.5,105.5 C 88.5092,105.334 94.5092,105.501 100.5,106C 101.833,107 101.833,108 100.5,109C 94.5,109.667 88.5,109.667 82.5,109C 81.3157,107.855 81.3157,106.688 82.5,105.5 Z"/></g>
<g><path style="opacity:1" fill="#0d5179" d="M 154.5,105.5 C 160.509,105.334 166.509,105.501 172.5,106C 173.833,107 173.833,108 172.5,109C 166.5,109.667 160.5,109.667 154.5,109C 153.316,107.855 153.316,106.688 154.5,105.5 Z"/></g>
<g><path style="opacity:1" fill="#eeecea" d="M 129.5,113.5 C 129.158,114.338 128.492,114.672 127.5,114.5C 126.508,114.672 125.842,114.338 125.5,113.5C 125.051,111.023 125.717,109.023 127.5,107.5C 129.283,109.023 129.949,111.023 129.5,113.5 Z"/></g>
<g><path style="opacity:0.985" fill="#f0c8a0" d="M 95.5,191.5 C 84.8333,191.5 74.1667,191.5 63.5,191.5C 63.162,189.146 62.662,186.813 62,184.5C 51.6365,174.471 41.6365,164.137 32,153.5C 31.3333,140.833 31.3333,128.167 32,115.5C 33.5286,112.484 36.0286,111.151 39.5,111.5C 42.9714,111.151 45.4714,112.484 47,115.5C 47.3333,125.167 47.6667,134.833 48,144.5C 49.6246,148.047 51.4579,147.88 53.5,144C 56.5,143.333 59.5,143.333 62.5,144C 66.5,148 70.5,152 74.5,156C 84.0231,155.217 90.8564,159.05 95,167.5C 95.4997,175.493 95.6664,183.493 95.5,191.5 Z"/></g>
<g><path style="opacity:0.984" fill="#f0c79f" d="M 191.5,191.5 C 180.833,191.5 170.167,191.5 159.5,191.5C 159.334,183.493 159.5,175.493 160,167.5C 164.144,159.05 170.977,155.217 180.5,156C 184.5,152 188.5,148 192.5,144C 197.526,142.506 201.692,143.673 205,147.5C 205.915,146.672 206.581,145.672 207,144.5C 207.333,134.833 207.667,125.167 208,115.5C 209.529,112.484 212.029,111.151 215.5,111.5C 218.971,111.151 221.471,112.484 223,115.5C 223.667,128.167 223.667,140.833 223,153.5C 213.364,164.137 203.364,174.471 193,184.5C 192.338,186.813 191.838,189.146 191.5,191.5 Z"/></g>
<g><path style="opacity:1" fill="#c91c4e" d="M 125.5,113.5 C 125.842,114.338 126.508,114.672 127.5,114.5C 128.659,116.25 130.326,117.25 132.5,117.5C 133.688,118.364 134.855,119.364 136,120.5C 136.612,122.237 135.946,123.237 134,123.5C 132.594,122.586 131.094,121.92 129.5,121.5C 129.158,120.662 128.492,120.328 127.5,120.5C 126.341,118.75 124.674,117.75 122.5,117.5C 121.312,116.636 120.145,115.636 119,114.5C 118.388,112.763 119.054,111.763 121,111.5C 122.406,112.414 123.906,113.08 125.5,113.5 Z"/></g>
<g><path style="opacity:1" fill="#2e9eb8" d="M 132.5,117.5 C 130.326,117.25 128.659,116.25 127.5,114.5C 128.492,114.672 129.158,114.338 129.5,113.5C 131.094,113.08 132.594,112.414 134,111.5C 134.772,111.645 135.439,111.978 136,112.5C 135.888,114.797 134.722,116.464 132.5,117.5 Z"/></g>
<g><path style="opacity:1" fill="#0d5179" d="M 82.5,113.5 C 88.5092,113.334 94.5092,113.501 100.5,114C 101.833,115 101.833,116 100.5,117C 94.5,117.667 88.5,117.667 82.5,117C 81.3157,115.855 81.3157,114.688 82.5,113.5 Z"/></g>
<g><path style="opacity:1" fill="#0d5179" d="M 154.5,113.5 C 160.509,113.334 166.509,113.501 172.5,114C 173.833,115 173.833,116 172.5,117C 166.5,117.667 160.5,117.667 154.5,117C 153.316,115.855 153.316,114.688 154.5,113.5 Z"/></g>
<g><path style="opacity:1" fill="#2d9db8" d="M 122.5,117.5 C 124.674,117.75 126.341,118.75 127.5,120.5C 126.508,120.328 125.842,120.662 125.5,121.5C 123.906,121.92 122.406,122.586 121,123.5C 120.228,123.355 119.561,123.022 119,122.5C 119.112,120.203 120.278,118.536 122.5,117.5 Z"/></g>
<g><path style="opacity:1" fill="#efefef" d="M 127.5,120.5 C 128.492,120.328 129.158,120.662 129.5,121.5C 129.5,128.833 129.5,136.167 129.5,143.5C 128.167,143.5 126.833,143.5 125.5,143.5C 125.5,136.167 125.5,128.833 125.5,121.5C 125.842,120.662 126.508,120.328 127.5,120.5 Z"/></g>
<g><path style="opacity:1" fill="#0d5179" d="M 82.5,121.5 C 88.5092,121.334 94.5092,121.501 100.5,122C 101.833,123 101.833,124 100.5,125C 94.5,125.667 88.5,125.667 82.5,125C 81.3157,123.855 81.3157,122.688 82.5,121.5 Z"/></g>
<g><path style="opacity:1" fill="#0d5179" d="M 154.5,121.5 C 160.509,121.334 166.509,121.501 172.5,122C 173.833,123 173.833,124 172.5,125C 166.5,125.667 160.5,125.667 154.5,125C 153.316,123.855 153.316,122.688 154.5,121.5 Z"/></g>
<g><path style="opacity:1" fill="#0082aa" d="M 179.5,133.5 C 179.822,135.722 179.155,137.556 177.5,139C 164.504,139.5 151.504,139.667 138.5,139.5C 138.5,138.167 138.5,136.833 138.5,135.5C 151.504,135.667 164.504,135.5 177.5,135C 178.044,134.283 178.711,133.783 179.5,133.5 Z"/></g>
<g><path style="opacity:1" fill="#0282a9" d="M 76.5,134.5 C 89.7541,135.481 103.087,135.814 116.5,135.5C 117.301,137.042 117.634,138.708 117.5,140.5C 104.242,139.685 90.9082,139.185 77.5,139C 75.5339,137.653 75.2006,136.153 76.5,134.5 Z"/></g>
<g><path style="opacity:0.994" fill="#084b73" d="M 117.5,143.5 C 120.167,143.5 122.833,143.5 125.5,143.5C 126.833,143.5 128.167,143.5 129.5,143.5C 132.167,143.5 134.833,143.5 137.5,143.5C 137.5,144.167 137.5,144.833 137.5,145.5C 137.666,149.846 137.499,154.179 137,158.5C 130.667,159.833 124.333,159.833 118,158.5C 117.501,154.179 117.334,149.846 117.5,145.5C 117.5,144.833 117.5,144.167 117.5,143.5 Z"/></g>
<g><path style="opacity:1" fill="#d3ab83" d="M 49.5,149.5 C 50.2644,151.74 51.0977,154.073 52,156.5C 56.6667,161.167 61.3333,165.833 66,170.5C 66.6172,171.449 66.4506,172.282 65.5,173C 64.1667,173.667 62.8333,173.667 61.5,173C 57.4496,168.405 53.2829,163.905 49,159.5C 46.8723,155.975 47.0389,152.642 49.5,149.5 Z"/></g>
<g><path style="opacity:1" fill="#d3ab83" d="M 204.5,149.5 C 207.999,152.191 208.499,155.524 206,159.5C 201.817,163.382 197.984,167.549 194.5,172C 192.956,173.187 191.289,173.52 189.5,173C 188.549,172.282 188.383,171.449 189,170.5C 193.667,165.833 198.333,161.167 203,156.5C 204.202,154.323 204.702,151.989 204.5,149.5 Z"/></g>
<g><path style="opacity:0.989" fill="#00a0c8" d="M 63.5,191.5 C 74.1667,191.5 84.8333,191.5 95.5,191.5C 98.1194,191.232 100.619,191.565 103,192.5C 103.667,197.167 103.667,201.833 103,206.5C 101.989,207.337 100.822,207.67 99.5,207.5C 86.1667,207.5 72.8333,207.5 59.5,207.5C 58.1779,207.67 57.0113,207.337 56,206.5C 55.3333,201.833 55.3333,197.167 56,192.5C 58.3806,191.565 60.8806,191.232 63.5,191.5 Z"/></g>
<g><path style="opacity:0.989" fill="#00a0c8" d="M 159.5,191.5 C 170.167,191.5 180.833,191.5 191.5,191.5C 194.119,191.232 196.619,191.565 199,192.5C 199.667,197.167 199.667,201.833 199,206.5C 197.989,207.337 196.822,207.67 195.5,207.5C 182.167,207.5 168.833,207.5 155.5,207.5C 154.178,207.67 153.011,207.337 152,206.5C 151.333,201.833 151.333,197.167 152,192.5C 154.381,191.565 156.881,191.232 159.5,191.5 Z"/></g>
<g><path style="opacity:1" fill="#e4ebed" d="M 61.5,195.5 C 67.4877,195.664 68.821,198.164 65.5,203C 59.4034,203.147 58.0701,200.647 61.5,195.5 Z"/></g>
<g><path style="opacity:1" fill="#e4ebed" d="M 189.5,195.5 C 195.488,195.664 196.821,198.164 193.5,203C 187.403,203.147 186.07,200.647 189.5,195.5 Z"/></g>
<g><path style="opacity:1" fill="#9f0027" d="M 59.5,207.5 C 72.8333,207.5 86.1667,207.5 99.5,207.5C 99.5,208.833 99.5,210.167 99.5,211.5C 86.1667,211.5 72.8333,211.5 59.5,211.5C 59.5,210.167 59.5,208.833 59.5,207.5 Z"/></g>
<g><path style="opacity:1" fill="#9f0027" d="M 155.5,207.5 C 168.833,207.5 182.167,207.5 195.5,207.5C 195.5,208.833 195.5,210.167 195.5,211.5C 182.167,211.5 168.833,211.5 155.5,211.5C 155.5,210.167 155.5,208.833 155.5,207.5 Z"/></g>
<g><path style="opacity:1" fill="#c70a4f" d="M 59.5,211.5 C 72.8333,211.5 86.1667,211.5 99.5,211.5C 99.5,215.5 99.5,219.5 99.5,223.5C 86.1667,223.5 72.8333,223.5 59.5,223.5C 59.5,219.5 59.5,215.5 59.5,211.5 Z"/></g>
<g><path style="opacity:1" fill="#c70a4f" d="M 155.5,211.5 C 168.833,211.5 182.167,211.5 195.5,211.5C 195.5,215.5 195.5,219.5 195.5,223.5C 182.167,223.5 168.833,223.5 155.5,223.5C 155.5,219.5 155.5,215.5 155.5,211.5 Z"/></g>
</svg>
